<svg xmlns="http://www.w3.org/2000/svg" viewBox="0 0 218.13 68.3"><title>Pepsi logo</title><path d="M547.46,511.53v-.06c0-.29-.07-.75-.13-1.26a15.3,15.3,0,0,0-.59-2.67c-2.07-6.54-7.62-10.76-14.13-10.76a14.69,14.69,0,0,0-2,.13,15.07,15.07,0,0,0-12.92,17.23,14.75,14.75,0,0,0,14.88,13.1,17,17,0,0,0,2-.13,15.19,15.19,0,0,0,10.29-5.52.88.88,0,0,0,.2-.64.77.77,0,0,0-.34-.52,31.81,31.81,0,0,0-2.92-1.51l-.58-.28a1.39,1.39,0,0,0-.63-.2.79.79,0,0,0-.61.35,9.64,9.64,0,0,1-6.13,3.35,10.64,10.64,0,0,1-1.29.08c-4.06,0-8.15-2.72-9.34-6.45l0-.1.09,0a11.87,11.87,0,0,1,4.92-1c.35,0,.7,0,1.05,0,.81.06,1.62.17,2.47.28a37.38,37.38,0,0,0,5.12.43,25.29,25.29,0,0,0,3.52-.25c4.64-.89,6.49-2.2,6.5-2.21.66-.42.63-.77.59-1.41m-5.25-1.9a17.55,17.55,0,0,1-3.11.62,16.26,16.26,0,0,1-2.12.12c-1.36,0-2.82-.11-4.25-.22h-.05c-1.32-.1-2.56-.19-3.76-.19a18.79,18.79,0,0,0-2.39.15,18,18,0,0,0-4,1l0-.18a10.26,10.26,0,0,1,8.76-8.92,11.33,11.33,0,0,1,1.29-.08,10.54,10.54,0,0,1,9.7,7.58l0,.11Z" transform="translate(-402.93 -477.85)" style="fill:#004a97"/><path d="M620.22,498.5a.71.71,0,0,0-.71-.7h-3.84a.7.7,0,0,0-.7.7v27.33a.71.71,0,0,0,.7.71h3.84a.71.71,0,0,0,.71-.71Z" transform="translate(-402.93 -477.85)" style="fill:#004a97"/><path d="M617.6,488a3.47,3.47,0,1,0,3.47,3.47A3.48,3.48,0,0,0,617.6,488" transform="translate(-402.93 -477.85)" style="fill:#004a97"/><path d="M566.54,527.26l.74,0A14.45,14.45,0,0,0,577.62,523a15.52,15.52,0,0,0-10.85-26.23,14.9,14.9,0,0,0-14.52,11.32,34.81,34.81,0,0,0-.62,7v21.45a.71.71,0,0,0,.7.71h3.81a.72.72,0,0,0,.71-.71V523l.2.19a15.15,15.15,0,0,0,9.48,4m.17-25.29c5.45,0,9.72,4.48,9.72,10.21s-4.05,10.1-9.42,10.1a10.13,10.13,0,0,1-7.07-2.74,9.8,9.8,0,0,1-2.94-7.19c0-5.72,4.36-10.38,9.71-10.38" transform="translate(-402.93 -477.85)" style="fill:#004a97"/><path d="M498,527.26l.73,0A14.45,14.45,0,0,0,509.11,523a15.52,15.52,0,0,0-10.86-26.23,14.9,14.9,0,0,0-14.52,11.32,34.46,34.46,0,0,0-.62,7v21.45a.71.71,0,0,0,.7.71h3.82a.72.72,0,0,0,.71-.71V523l.19.19a15.16,15.16,0,0,0,9.49,4M498.2,502c5.44,0,9.71,4.48,9.71,10.21s-4,10.1-9.43,10.1a10.11,10.11,0,0,1-7.06-2.74,9.8,9.8,0,0,1-2.95-7.19c0-5.72,4.36-10.38,9.72-10.38" transform="translate(-402.93 -477.85)" style="fill:#004a97"/><path d="M585.58,522.48a16.47,16.47,0,0,0,11.65,4.77h.15c8.13-.05,11.76-4.5,11.76-8.87,0-6.05-5.71-7.71-7.46-8.08l-1.74-.34c-1.41-.27-2.88-.55-4.22-.92-.94-.26-4-1.27-4-3.55,0-2.51,2.79-3.86,5.4-3.86a9.27,9.27,0,0,1,6.38,2.2,1.24,1.24,0,0,0,.75.31,1.17,1.17,0,0,0,.69-.25,27.6,27.6,0,0,0,2.62-2.27.8.8,0,0,0,.26-.61,1.09,1.09,0,0,0-.39-.71A15.39,15.39,0,0,0,597,496.78h0c-6.09,0-10.69,3.91-10.69,9.1,0,4.11,3.38,7,9.51,8.24l3.84.74c2.52.46,3.94,1.8,3.89,3.68s-2.29,3.72-6,3.72a11.53,11.53,0,0,1-7.87-3.19l0,0a.92.92,0,0,0-.6-.32.94.94,0,0,0-.56.24c-.23.19-2.79,2.21-3.07,2.5a.59.59,0,0,0-.18.43.9.9,0,0,0,.3.59" transform="translate(-402.93 -477.85)" style="fill:#004a97"/><path d="M461.23,536.15a34.15,34.15,0,1,1,0-48.3,34.15,34.15,0,0,1,0,48.3" transform="translate(-402.93 -477.85)" style="fill:#fff"/><path d="M464.3,494.36a22.63,22.63,0,0,1-8.32,25c-9.8,7.21-24.07,7.22-43.78,13.43a32.44,32.44,0,0,0,52.11-38.45" transform="translate(-402.93 -477.85)" style="fill:#004a97"/><path d="M456.55,486A32.44,32.44,0,0,0,411,531.26,67.36,67.36,0,0,0,456.55,486" transform="translate(-402.93 -477.85)" style="fill:#eb0029"/></svg>