<svg id="Layer_1" data-name="Layer 1" xmlns="http://www.w3.org/2000/svg" width="375.25" height="262.05" viewBox="0 0 375.25 262.05"><title>Sprite logo - Brandlogos.net</title><polygon points="199.41 159.9 217.65 157.38 239.03 102.9 220.95 105.41 199.41 159.9" style="fill:#00953b"/><path d="M310.71,407.39a29.45,29.45,0,0,0,3.14-10c1-9.5-4-16.62-10.32-22.86-3.73-3.71-5.52-7.56-5.08-10.68a6.23,6.23,0,0,1,.76-2.38c2.18-3.87,7-5.2,11.19-5a2.44,2.44,0,0,1,1,.15h.15a17.67,17.67,0,0,1,12.57,8l.44.59L331,348.73l-.44-.15a39.75,39.75,0,0,0-11.37-2.95,44.79,44.79,0,0,0-24.72,3.84,28.82,28.82,0,0,0-15.69,18.72,34.54,34.54,0,0,0-.76,3.87,17.32,17.32,0,0,0,7.22,16.31c4.65,3.71,9.58,8.6,8.84,14.54a11.86,11.86,0,0,1-2.86,6.38,17.22,17.22,0,0,1-6.42,4.76h-.15a19,19,0,0,1-9.58,1.18,19.26,19.26,0,0,1-12-6.22l-.74-.9-8.53,21.38.31.15a49.75,49.75,0,0,0,7.77,1.77c.61.15,1.2.15,1.79.31A48.86,48.86,0,0,0,291.27,427h.15a.15.15,0,0,0,.15-.15,48.42,48.42,0,0,0,6-3.69A43.14,43.14,0,0,0,310.71,407.39Z" transform="translate(-196.37 -252.97)" style="fill:#00953b"/><path d="M366,392.54a28.62,28.62,0,0,0,1.94-6.68,17.48,17.48,0,0,0-1.2-11.14,12.66,12.66,0,0,0-9.43-6.55,26.47,26.47,0,0,0-7.62-.15l-20.79,3-27.51,70.08,18.24-2.51L341.06,384a14.81,14.81,0,0,1,4.49-6.51,5.32,5.32,0,0,1,3.58-.74h.15a4.37,4.37,0,0,1,3,5.11,22.66,22.66,0,0,1-.44,3.1c-.61,3-5.85,19.65-16.3,29.85a41.28,41.28,0,0,1-3.93,3.3c-.61.61-1.35,1-1.81,1.49a2.29,2.29,0,0,0-.59.46l-.15.15-2.18,1.33c-.15.15-.31.15-.44.44v.15a.31.31,0,0,0,.28.31h.46a48.91,48.91,0,0,0,30.35-16.33l1.48-1.94A41.13,41.13,0,0,0,366,392.54Z" transform="translate(-196.37 -252.97)" style="fill:#00953b"/><path d="M505.54,381.1l1.64,2.69-.13.15A54.41,54.41,0,0,1,498.2,394c-6.44,5.79-17,10.39-25.57,8.74a14.87,14.87,0,0,1-5.52-2.18,13.1,13.1,0,0,1-3.6-3.47,16.28,16.28,0,0,1-1.94-12.93,46.3,46.3,0,0,1,3.29-9.5A47.07,47.07,0,0,1,480,356.46a35.72,35.72,0,0,1,23-7.4c.61,0,1,.15,1.51.15a8.88,8.88,0,0,1,6.13,3.71,9.16,9.16,0,0,1,1.2,7,13.72,13.72,0,0,1-.89,3,21.84,21.84,0,0,1-6,8.17c-4.93,5.2-16,8.47-22.26,9.06h-.5c-.15,0-.31,0-.31-.15s-.15-.31,0-.31c.15-.44.46-.44.61-.59a1.79,1.79,0,0,0,.44-.28,22.78,22.78,0,0,0,2.18-1.2A37.12,37.12,0,0,0,499,361.09a16.77,16.77,0,0,0,.76-2.18,3.58,3.58,0,0,0-.31-2.66,1.48,1.48,0,0,0-1-.59,3.4,3.4,0,0,0-2.18.44c-3.43,1.64-8.73,8-14.36,22a21.85,21.85,0,0,0-1.33,4.37c-1,5.2.59,8.91,3.73,10.11a6.41,6.41,0,0,0,1,.28c4.36.9,11.67-1.62,20-11.27Z" transform="translate(-196.37 -252.97)" style="fill:#00953b"/><path d="M389.8,370.9l3.6-9-4.65.59-8.38,1.18L359,418.22l18.24-2.66L389.65,384c3.14-8.6,10.91-10.09,16.76-8.91L413,358.62C403.42,358.1,397.07,361.94,389.8,370.9Z" transform="translate(-196.37 -252.97)" style="fill:#00953b"/><path d="M441.1,335.08a5.54,5.54,0,0,0-2-1.64,8.11,8.11,0,0,0-6.72.31,21.64,21.64,0,0,0-3.73,1.92,17.93,17.93,0,0,0-5.69,6.84,14.53,14.53,0,0,0-1.2,3.56,6.56,6.56,0,0,0,.46,4.37,5.5,5.5,0,0,0,3.73,2.51,10.18,10.18,0,0,0,5.24-.74,21.8,21.8,0,0,0,3.75-1.92,18.06,18.06,0,0,0,5.67-6.84,14.53,14.53,0,0,0,1.2-3.56,6.16,6.16,0,0,0-.74-4.8Z" transform="translate(-196.37 -252.97)" style="fill:#00953b"/><polygon points="278.07 97.24 269.23 98.58 275.21 83 254.59 92.05 250.99 101.11 246.37 101.85 242.79 102.29 237.4 116.11 245.47 115.06 229.48 155.59 247.72 153.08 263.71 112.55 272.44 111.35 278.07 97.24" style="fill:#00953b"/><path d="M571.47,322.85l.08,0,.08,0-.08,0Z" transform="translate(-196.37 -252.97)" style="fill:#00953b"/><path d="M514.07,387a75.85,75.85,0,0,0,12,53.79,206.61,206.61,0,0,0-242.42,44,72,72,0,0,0-69.23-59.53,63,63,0,0,0-9.32.28A95.53,95.53,0,0,0,271,303.2c25.57,22.71,60,35.49,97.05,36.67,50.67,1.48,92.69-21.66,123.94-57.61a39.75,39.75,0,0,0,29.24,58.31A40.71,40.71,0,0,0,544.85,337a75.18,75.18,0,0,0-30.79,50Zm57.41-64.14c-4.78,2.82-53.83,17.08-68.34-1.77-14.79-19.26,3-68.11,3-68.11C366.67,408.13,259.47,289,259.47,289c33.19,108.84-50.84,135.11-63.1,138.23,9.27-1.94,60.85-8.32,81.5,87.74,0,0,98.67-148.32,257.32-64C535.14,451,480.7,381.55,571.47,322.85Z" transform="translate(-196.37 -252.97)" style="fill:#00953b"/><path d="M499.84,407.83a2.18,2.18,0,0,1-.59,1,3.52,3.52,0,0,1-.89.59,2.77,2.77,0,0,1-1.2.31,2.86,2.86,0,0,1-1.2-.31,2.18,2.18,0,0,1-.89-.74,2.58,2.58,0,0,1-.59-1,3.15,3.15,0,0,1-.15-1.18,4.22,4.22,0,0,1,.31-1.33,2.36,2.36,0,0,1,.59-1,3.93,3.93,0,0,1,.89-.59,2.86,2.86,0,0,1,1.2-.31,3.47,3.47,0,0,1,1.2.31,4.54,4.54,0,0,1,.89.59,2.36,2.36,0,0,1,.59,1,4.22,4.22,0,0,1,.31,1.33A6.55,6.55,0,0,1,499.84,407.83Zm.76-2.82a2.36,2.36,0,0,0-.89-1.18,3.1,3.1,0,0,0-1.2-.74,4.36,4.36,0,0,0-1.51-.31,5.15,5.15,0,0,0-1.48.31,3,3,0,0,0-1.2.74,7.89,7.89,0,0,0-.89,1.18,5.2,5.2,0,0,0-.31,1.64,4.37,4.37,0,0,0,.31,1.49,3.1,3.1,0,0,0,.74,1.18,3.19,3.19,0,0,0,1.2.74,3.81,3.81,0,0,0,3,0,3.19,3.19,0,0,0,1.2-.74,9.69,9.69,0,0,0,.89-1.18,5.33,5.33,0,0,0,.31-1.64,1.7,1.7,0,0,0-.15-1.48Z" transform="translate(-196.37 -252.97)" style="fill:#00953b"/><path d="M497.16,406.34h-.74v-1.18h1.2c.15,0,.15,0,.28.15s.15.13.31.13.15.15.15.31,0,.31-.15.31a.14.14,0,0,0-.15.13.53.53,0,0,1-.28.15Zm1.35.31a1.27,1.27,0,0,0,.31-.9.92.92,0,0,0-.46-.9,2.29,2.29,0,0,0-1.2-.28h-1.64v4.37h.74v-1.79H497l1.2,1.79H499l-1.2-1.94A1.13,1.13,0,0,0,498.51,406.65Z" transform="translate(-196.37 -252.97)" style="fill:#00953b"/></svg>