<svg id="Layer_1" data-name="Layer 1" xmlns="http://www.w3.org/2000/svg" width="150.23" height="106.76" viewBox="0 0 150.23 106.76"><title>Stella Artois logo - Brandlogos.net</title><g id="Layer_2" data-name="Layer 2"><g id="Capa_2" data-name="Capa 2"><path d="M433.26,400.37c0-.18-.14-.25-.34-.25h-.37v.5h.35C433.17,400.62,433.26,400.52,433.26,400.37Z" transform="translate(-308.88 -330.62)" style="fill:#d50032"/><path d="M451,414.21a7.6,7.6,0,0,0-5.35-5.59A10.94,10.94,0,0,1,451,414.21Z" transform="translate(-308.88 -330.62)" style="fill:#d50032"/><path d="M452.42,410.62a12.15,12.15,0,0,1-2.05-6.58A6.6,6.6,0,0,0,452.42,410.62Z" transform="translate(-308.88 -330.62)" style="fill:#d50032"/><path d="M315,400.37h.42a23.91,23.91,0,0,1,4.68-6.12A16.9,16.9,0,0,0,315,400.37Z" transform="translate(-308.88 -330.62)" style="fill:#d50032"/><polygon points="88.92 10.74 87.72 11.09 86.62 15.78 87.7 16.03 88.92 10.74" style="fill:#d50032"/><path d="M437.22,382.23a9.57,9.57,0,0,1-.9-5C435.71,378.48,436.2,380.86,437.22,382.23Z" transform="translate(-308.88 -330.62)" style="fill:#d50032"/><path d="M421.9,387.53a22.65,22.65,0,0,1-1.3-3.73h0a24.1,24.1,0,0,1-1.2,3.65l-.66,1.81h3.94Z" transform="translate(-308.88 -330.62)" style="fill:#d50032"/><path d="M432.9,402.27a1.48,1.48,0,1,0-1.47-1.49h0A1.48,1.48,0,0,0,432.9,402.27Zm-.74-2.48h.74c.52,0,.82.15.82.62s-.22.5-.56.52l.53.89h-.44l-.47-.86h-.21v.86h-.43Z" transform="translate(-308.88 -330.62)" style="fill:#d50032"/><polygon points="72.92 13.32 70.59 16.91 74.15 14.61 75.12 24.77 76.09 14.6 79.65 16.9 77.33 13.31 83.32 12.35 77.33 11.38 79.65 7.79 76.09 10.09 75.12 0 74.15 10.11 70.59 7.8 72.92 11.4 66.92 12.36 72.92 13.32" style="fill:#d50032"/><path d="M444.9,422.26c.09-1.08-1.51-4.29.29-6.13C442.49,417.62,444.66,421.18,444.9,422.26Z" transform="translate(-308.88 -330.62)" style="fill:#d50032"/><path d="M444.61,399c-.29,4.94,3.43,8.4,4.62,9.13C447.95,406.85,445,403,444.61,399Z" transform="translate(-308.88 -330.62)" style="fill:#d50032"/><path d="M449,409.49c2.1,2.13,3.93,6.13,3.93,11.95C453.64,416.82,452.24,411.46,449,409.49Z" transform="translate(-308.88 -330.62)" style="fill:#d50032"/><path d="M370.9,346.67a2.51,2.51,0,0,0,1.88-3.29,2.67,2.67,0,0,0-5.2,1.22l0,.18a2.49,2.49,0,0,0,2.91,2Zm-1.28-4.74c.76-.2,1.51.41,1.88,1.8s.07,2.24-.73,2.46-1.51-.43-1.86-1.76,0-2.28.74-2.5Z" transform="translate(-308.88 -330.62)" style="fill:#d50032"/><path d="M369.08,354.05a.41.41,0,0,0-.18.46,17.23,17.23,0,0,0,2.29,5.45,1.37,1.37,0,0,1,.5,0,18.14,18.14,0,0,1-2.37-5.34c.74-.4,1-1.17.23-1.66A.93.93,0,0,1,369.08,354.05Z" transform="translate(-308.88 -330.62)" style="fill:#d50032"/><path d="M372.23,361.43a17.5,17.5,0,0,0,1.67,1.76,1.72,1.72,0,0,1,.51-.18,15.54,15.54,0,0,1-1.21-1.15A1.39,1.39,0,0,0,372,360a.82.82,0,0,1,.4,1.09l0,.06a.85.85,0,0,0-.79,0A.88.88,0,0,1,372.23,361.43Z" transform="translate(-308.88 -330.62)" style="fill:#d50032"/><polygon points="54.17 18.7 52.77 15.19 57.34 17.46 57.69 17.34 55.83 12.4 55.27 12.6 56.33 15.39 52.7 13.61 51.66 14.04 53.63 18.93 54.17 18.7" style="fill:#d50032"/><path d="M323.07,387.62a4.77,4.77,0,0,0-1.65-3.08c3.26,4.42-3.65,8.84-5.79,13.84,4.13-5.76,8.2-7.44,11.05-13,1.45-2.81,1.16-7-2.06-7.55a3.32,3.32,0,0,1,3.64-1,4.4,4.4,0,0,0-6.64,3.79C324.28,378,330.2,382.12,323.07,387.62Z" transform="translate(-308.88 -330.62)" style="fill:#d50032"/><polygon points="48.16 21.77 46.31 18.48 51.14 20.13 51.47 19.96 48.98 15.31 48.45 15.58 49.87 18.21 46.04 16.92 45.06 17.49 47.66 22.07 48.16 21.77" style="fill:#d50032"/><path d="M329.65,383.16a22.51,22.51,0,0,1-4.58,6.6C327.66,387.49,329.12,385.34,329.65,383.16Z" transform="translate(-308.88 -330.62)" style="fill:#d50032"/><path d="M326.09,387.89c2-2.23,4.52-6.49,1.64-9.57C330,381.91,327.09,386.4,326.09,387.89Z" transform="translate(-308.88 -330.62)" style="fill:#d50032"/><path d="M401,348l.14.07a1.85,1.85,0,0,0,2.64-.92,1.62,1.62,0,0,0-.84-2l1.92-1.23v-.21l-3.08-1.11-.46.86,2.09.76-1.76,1.17c.48.15,1.33.69,1,1.49a1,1,0,0,1-1.27.63l-.11,0a1.18,1.18,0,0,1-.74-1.16l-.73.18A1.85,1.85,0,0,0,401,348Z" transform="translate(-308.88 -330.62)" style="fill:#d50032"/><path d="M351.62,356.36l-.38-1.27,1.81-1.4,1.16.67,1.06-.8-5-2.83-.72.56,1.54,5.49Zm-1.22-4.19,2.09,1.2-1.43,1.11Z" transform="translate(-308.88 -330.62)" style="fill:#d50032"/><path d="M374.8,357.47c.15,1.1.82,4.48,3.17,6.15a5.77,5.77,0,0,0,8.46-2.13c-1.91,2.26-4.8,3.27-6.92,2.23a2.93,2.93,0,0,1-1.87-2.19c-.21-1.66,1.54-2.14,2.05-1.1a1.83,1.83,0,0,1-.68.75c2.53.08,2.57-2.38,1.34-2.69,1-.7.81-1.43,1.94-2a2.59,2.59,0,0,0-3.57.53c.51-1.09-.17-2.46-1.32-2.27,1,.74-.43,2,0,4h0a4.14,4.14,0,0,0-.45,2.87,10.45,10.45,0,0,1-1.67-4.19,1.88,1.88,0,0,0,1.41-1.7l-.28.11a4.69,4.69,0,0,0-.08-1.68c-.2.41,0,1.14-.21,1.82a3.38,3.38,0,0,0-1.15.82,3.3,3.3,0,0,0-.89-.54,1.77,1.77,0,0,1,.7-1.46,2.21,2.21,0,0,1,1,1.09,1.31,1.31,0,0,0-.17-.82,2,2,0,0,1,.56-.93,1.75,1.75,0,0,0-.81.64,2.43,2.43,0,0,0-.6-.42,2.58,2.58,0,0,0-.65.74,1.73,1.73,0,0,0-.6-.56,2.62,2.62,0,0,1,.55.12,1.73,1.73,0,0,1,.7-1.15c.28.14.4.27.71.73q0-.2,0-.4a.53.53,0,0,1,.25-.26c.12,0,.18.15.29.37a5.59,5.59,0,0,0-.15-.79,1.13,1.13,0,0,0-.47.39,1.78,1.78,0,0,0-.6-.92,2,2,0,0,0-.57,1,1.13,1.13,0,0,0-.39-.35,7,7,0,0,0,0,1.15l-.42,0c.14.27-.19.94.31,1.76h-.43A1.61,1.61,0,0,0,374.8,357.47Zm6.82-.94c-.46.08-.64,1.38-2.24,2,.42.06.81.6.51,1.45a1.41,1.41,0,0,0-2.34-.18C377.83,358.3,379.64,355.73,381.62,356.53Z" transform="translate(-308.88 -330.62)" style="fill:#d50032"/><path d="M441.9,387.89c-1-1.49-3.9-6-1.64-9.57C437.42,381.4,439.9,385.62,441.9,387.89Z" transform="translate(-308.88 -330.62)" style="fill:#d50032"/><path d="M317.66,404.06a12.08,12.08,0,0,1-2.06,6.56A6.62,6.62,0,0,0,317.66,404.06Z" transform="translate(-308.88 -330.62)" style="fill:#d50032"/><path d="M442.95,389.76a22.51,22.51,0,0,1-4.58-6.6C438.9,385.34,440.36,387.49,442.95,389.76Z" transform="translate(-308.88 -330.62)" style="fill:#d50032"/><path d="M365,408.54a2.22,2.22,0,0,0,1.11-2.07,2.17,2.17,0,0,0-.84-1.92c-.73-.56-1.55-.49-3.38-.48v4.82A7,7,0,0,0,365,408.54Z" transform="translate(-308.88 -330.62)" style="fill:#d50032"/><path d="M412.9,354.35a1.85,1.85,0,0,0,2.6-.33l.09-.13a1.64,1.64,0,0,0-.41-2.28l-.2-.12a1.68,1.68,0,0,0-.28-.14l2.18-.8-.9-.62s-.6.21-.76.28c-.78.32-2.42.72-3,1.65a1.73,1.73,0,0,0,.51,2.39Zm.18-1.88c.31-.5.9-.89,1.42-.57h0c.52.32.48.93.15,1.45a1,1,0,0,1-1.3.55l-.09,0h0a1,1,0,0,1-.17-1.39Z" transform="translate(-308.88 -330.62)" style="fill:#d50032"/><path d="M454.84,397.56c-4.15-8.11-6.77-8.94-4.94-13.94a2.72,2.72,0,0,0-3.12,3.08c.22,3.17,5.13,5.57,8.66,14.56-2.93-1.45-4.68,1.83-2.69,6.18.07.18.14.35.21.5a27.18,27.18,0,0,1,2.08,5c0-.35-.48-6.11-1.44-8.38a4,4,0,0,0-.7,1.25c0-1.84.54-3.59,2.81-3.86.13.35.26.71.38,1.08a29.68,29.68,0,0,1,.8,16.26,10.21,10.21,0,0,0-.15-1.7c.18-1.61.83-7.35-1.17-12.42a27,27,0,0,1,.64,10.37,5.4,5.4,0,0,1-.26-.86,24.55,24.55,0,0,0-1.25-9.47,41.39,41.39,0,0,1,.86,9.08,3.52,3.52,0,0,0,.08.9,15.64,15.64,0,0,1-.61,9.21l-.21.43a13.85,13.85,0,0,0,.39-5.76c0,3.26-1.37,8.48-3,9.64,2.23-4.35,4.91-12.72-2.15-19.84,7.09,8.24,3,22.47-7.65,26.4a8.91,8.91,0,0,0,.83-.81,8.06,8.06,0,0,0,2.51-1.69,6.9,6.9,0,0,1-1.94,1c.11-.16.22-.32.32-.49a7.82,7.82,0,0,0,2.81-2.45,10.06,10.06,0,0,1-2.42,1.73,6.74,6.74,0,0,0,.35-.82,8.84,8.84,0,0,0,2.77-2.42,11.09,11.09,0,0,1-2.6,1.93c.06-.2.11-.4.16-.62a3.93,3.93,0,0,0,1.32-1.18,4.34,4.34,0,0,1-1.24.79,9.3,9.3,0,0,0,.15-1.11c-1.12,4.67-3.95,6.95-6.95,7.08a7.53,7.53,0,0,0,2.5-1.43c3.2-2.88,5.28-9.06,1-15.71,3.16,6.56,1.78,13.19-2.67,15.66a9.86,9.86,0,0,1-7.63.46,16,16,0,0,1-2.1-.9.48.48,0,0,1,.07-.3c2.09,1.18,8.5,2.82,11.29-1.76-4.28,4.38-9.82,1.89-11.22,1.14v-.45c1.15.71,5.34,2.38,8.38.4a9.54,9.54,0,0,1-8.42-.91,2,2,0,0,0-.06-.58,6.19,6.19,0,0,0,3.72,1.27,7.16,7.16,0,0,1-3.92-2,1.5,1.5,0,0,0-.13-.43c.27,6.36-4.76,5.45-5.79,3.33h.31c.8,1.12,3.31,1.65,4.22-.16a2.75,2.75,0,0,1-3.78.16h.07a2.3,2.3,0,0,0,.45,0c2.22,1,3.61-.73,3.25-2.92-.15,2.25-1.28,2.94-2.64,2.7a1.52,1.52,0,0,0,.34-.22c1.81-.3,1.89-2.23,1.82-3.37a3.3,3.3,0,0,1-1,2.25,2.48,2.48,0,0,0,.12-.67c.59-1.22.31-2.53,1-3.63a6.28,6.28,0,0,0-1.14,2.74,5.08,5.08,0,0,1,3.53-5.36,4.47,4.47,0,0,1,4.64,1.33,3,3,0,0,1-.19,4,2.72,2.72,0,0,0-2.3-2.15,1.73,1.73,0,0,1,0-.32,2.92,2.92,0,0,1,2.28,1.55,2.67,2.67,0,0,0-2.14-2,2.72,2.72,0,0,1,.11-.25,4,4,0,0,1,1.79,1,2.73,2.73,0,0,0-1.61-1.22,1.35,1.35,0,0,1,.28-.25,3,3,0,0,1,1,.53,1.91,1.91,0,0,0-.68-.7,1.56,1.56,0,0,1,.62-.11c-2.8-1.57-4.7,2.25-2.33,4.25a6.08,6.08,0,0,0,6.06.62c4.46-2,4.15-6,3-7.79A3.13,3.13,0,0,0,437,422.5a3.78,3.78,0,0,1,5.06,1.74l0,.07a9,9,0,0,1-.42,7.06,8.19,8.19,0,0,0,.78-7.32c-1.15-2.64-4.16-3.28-6-1.23a2.61,2.61,0,0,1,1.43-2.46,2.92,2.92,0,0,1,3.38.8,2.7,2.7,0,0,0-1.81-1.54c-1.11-2.45.18-4.55-.22-6.18a7.67,7.67,0,0,1,4.24,3.25h0a3.3,3.3,0,0,1,4.95-.46h0a3.36,3.36,0,0,0-2.3,2.75,2.46,2.46,0,0,1,1.48-2.81c-2.21-.27-2.25,1.63-2.15,2.79a27.23,27.23,0,0,1,.33,8.76,10.24,10.24,0,0,0,4.38-5.59,14.66,14.66,0,0,1-3.92,10.49c4.12-3.33,5.45-9.58,4.92-14.06a11.44,11.44,0,0,0-6.41-9.14,8.1,8.1,0,0,0-3.93-.8c1-1.94,3.58-2.44,6-1.28-.7-.58-5.15-4.62-2.18-10.11.75,2.61,4.1,3,4.88,8.5,0-2.59.59-4.36,2.38-5.11-3.07-6.73-12.24-10.89-16.6-19-2.63-4.89-2.5-9.51-2.68-12s-1-5.72-3.47-6.43c4-1,7.13,3.29,7.37,10.17a2.55,2.55,0,0,0-.48.27,13.77,13.77,0,0,0-2-6.85,22.57,22.57,0,0,1,1.56,7.26,2.36,2.36,0,0,0-.28.42,20.31,20.31,0,0,0-1.37-6.06,31.55,31.55,0,0,1,1,7,5.37,5.37,0,0,0,.49,3.26c-1-4.9,2.65-5.22,3.42-5.07-2.23,2.29-1.94,6.88-.77,8.86a5.05,5.05,0,0,1,1-5.16,6.14,6.14,0,0,1,.74-4.3,7.51,7.51,0,0,0-2,0c-1-4.21-.07-7.24,1.5-8.72,1.3-1.22,3.17-1.16,3.58,0a1.21,1.21,0,0,1-.52,1.5c-.52.25-1.44.08-1.73-1.07,0,1.87,2.38,3.89,4.43,2.52a2.87,2.87,0,0,1-2.07,2,2,2,0,0,1-1.6-1.65,2.6,2.6,0,0,0,.38,1.6,2.3,2.3,0,0,1-.6-.27,2.58,2.58,0,0,1-.6-2.08,2.1,2.1,0,0,0-.23,1.27,3,3,0,0,1,0-3.19,3.17,3.17,0,0,0-.37,4.43,3.09,3.09,0,0,0,4.12.63,4.87,4.87,0,0,0,.28-7.91,6.61,6.61,0,0,0-8.54.66,5.43,5.43,0,0,1,4.67-.81,7.26,7.26,0,0,0-3.76,5.76,5,5,0,0,0-.46-1.2A5.88,5.88,0,0,1,437.9,363a4.76,4.76,0,0,0-2,2.81c-.11-.17-.23-.35-.36-.53a4,4,0,0,1,1.3-2.12,3,3,0,0,0-1.57,1.77l-.06-.07a2.75,2.75,0,0,1,.29-1.67,4.7,4.7,0,0,0-.75,1.15c-1.7-1.81-4.18-2.8-6.8-1.15h-9.73a5,5,0,0,0-1.35-1.23c1.39,1,1.14,6.07-3.6,6.27a3.92,3.92,0,0,0,4.76-4.74c.89,2.28-.09,4.81-1.79,5.47-1.9.72-4.19.06-4.56-2.3,2.07,1.31,5.52-1,4.65-3.74s-4.92-.82-8.63,1.4h0a3.43,3.43,0,0,0,.23-.8c.18-.28.51-.86.4-.93-1.22,2-3.13,1.92-3.85,2.49a3.63,3.63,0,0,0,0-1c.21-.39.41-.74.32-.9-.79,1.52-1.88,2-2.46,2.66a1.63,1.63,0,0,0,0-.44,5.47,5.47,0,0,0,.47-.89.69.69,0,0,0,.06-.39,10.3,10.3,0,0,1-3,3v-.35a3,3,0,0,1-1.73.59c0,1.56-.84,3.52-4.31,3.38a9,9,0,0,1-2.52,1.39l-.7.25a15.28,15.28,0,0,1-4.23.54h-.13a16.19,16.19,0,0,0,7.62-2.53c2.8.13,4-1.49,3.93-3.34,2.1-.13,4-1.37,3.43-3.79,2.57-1.64,10.13,0,9.69-3.93-.21-1.78-2.87-4.38-7.93-6.7-4.25-2-9.68-3.32-13.79-2.64-2.9.48-3,2.3-1.89,4.09s2.66,2.44,3,4.42a2.73,2.73,0,0,0-1.56,2.79,2.94,2.94,0,0,0-2,2.84c-3.49,2.35-7.95,1.36-9.61.54a1.78,1.78,0,0,0-1.77-1.79l-.31,0c.56,0,.84.84,1,1.39a1.05,1.05,0,0,0-1,.1,1.93,1.93,0,0,1,1.09.42,11.79,11.79,0,0,0,11,.16,6.31,6.31,0,0,0,.56,2.46c-2.62,1.42-7.14,2.08-12.29.42,3.91,1.8,8.55,2.56,12.81.55a7.71,7.71,0,0,0,.55.73c-3.53,1.64-11.19,2-15.64-2a2.59,2.59,0,0,1,1.24-2.56,2.65,2.65,0,0,0-1.7,1.89c-.36-.26-.89-1.66,1.07-3.14a4.35,4.35,0,0,0-1.75,1.43,16,16,0,0,1-1.58-1.67,6.29,6.29,0,0,0,1.29,2.12l-.12.2a22.24,22.24,0,0,1-1.76-2.62,1.75,1.75,0,0,1,1.33-1.63,1.58,1.58,0,0,0-1.53,1.62,1.88,1.88,0,0,1,1.45-2.78A3.9,3.9,0,0,0,369,361.1a22.46,22.46,0,0,1-1.14-3.63,1.61,1.61,0,0,1,1-.59,7.41,7.41,0,0,1-.51-2.64,1.66,1.66,0,0,0-.46,0c-.27-1.19,1-1.46,1.33-1.43-1.61-.49-3.18.42-3,1.33a1.13,1.13,0,0,0,.69.71,27.31,27.31,0,0,0,1.58,7,1.35,1.35,0,0,0,.67,1.79l.14.05a20.82,20.82,0,0,0,1.29,2.2,3.64,3.64,0,0,1-1.6-1.51,5.49,5.49,0,0,1-.13.66c-.49-.71-2.25-1.81-2.68-4.29-.2.48.33,1.71.45,2a2.29,2.29,0,0,1,0,.68A8.26,8.26,0,0,1,364,359a.6.6,0,0,0,0,.4,12.24,12.24,0,0,0,.46,1.67,2,2,0,0,1,.16.7,2.7,2.7,0,0,0,0,.75c-1.37-1.09-2.6-.75-4-3.66a1,1,0,0,0,.09.43c.17.41.45,1,.62,1.27a7.9,7.9,0,0,0,1,2.92,5.41,5.41,0,0,1-2.93-2.25c-.06.1.15.38.43.73.71.85,1.14,1.17,1.21,1.31a8.57,8.57,0,0,0,1.71,2.6c-4.14-2.57-10-6.35-11-2.89-.89,2.72,2.51,5,4.59,3.65-.37,2.36-2.67,3-4.56,2.3-1.71-.66-2.69-3.19-1.8-5.47a3.92,3.92,0,0,0,4.76,4.74c-4.74-.2-5-5.22-3.59-6.27a4.74,4.74,0,0,0-1.35,1.23h-9.73c-2.63-1.65-5.11-.66-6.81,1.15a4.7,4.7,0,0,0-.75-1.15,2.75,2.75,0,0,1,.29,1.67l-.06.07a3,3,0,0,0-1.57-1.77,4,4,0,0,1,1.31,2.12c-.14.18-.26.36-.37.53a4.72,4.72,0,0,0-2.07-2.81,6,6,0,0,1,1.66,3.52,5,5,0,0,0-.46,1.2,7.29,7.29,0,0,0-3.77-5.76,5.43,5.43,0,0,1,4.67.81,6.6,6.6,0,0,0-8.53-.66,4.87,4.87,0,0,0,.25,8,3.09,3.09,0,0,0,4.12-.63,3.16,3.16,0,0,0-.37-4.43,3,3,0,0,1,0,3.19,2,2,0,0,0-.23-1.27,2.54,2.54,0,0,1-.6,2.08,2.3,2.3,0,0,1-.6.27,2.47,2.47,0,0,0,.38-1.6,2,2,0,0,1-1.56,1.64,2.83,2.83,0,0,1-2.06-2c2,1.37,4.45-.65,4.42-2.52-.29,1.15-1.21,1.32-1.73,1.07a1.21,1.21,0,0,1-.52-1.5c.42-1.17,2.29-1.23,3.58,0,1.57,1.48,2.49,4.51,1.5,8.72a7.51,7.51,0,0,0-2,0,6,6,0,0,1,.74,4.3,5,5,0,0,1,1,5.16c1.17-2,1.46-6.57-.77-8.86.77-.15,4.39.17,3.42,5.07a5.37,5.37,0,0,0,.49-3.26,31.55,31.55,0,0,1,1-7,20.31,20.31,0,0,0-1.37,6.06,3,3,0,0,0-.27-.42,22.5,22.5,0,0,1,1.55-7.26,13.77,13.77,0,0,0-2.12,6.79,2.27,2.27,0,0,0-.48-.27c.25-6.88,3.37-11.18,7.37-10.17-2.49.71-3.3,4.06-3.47,6.43s0,7.09-2.65,12c-4.36,8.11-13.53,12.27-16.6,19,1.79.75,2.41,2.52,2.38,5.11.79-5.49,4.13-5.89,4.89-8.5,3,5.49-1.49,9.53-2.19,10.11,2.45-1.16,5-.66,6,1.28a8.14,8.14,0,0,0-3.93.8,11.44,11.44,0,0,0-6.41,9.14c-.53,4.48.8,10.73,4.93,14.06a14.63,14.63,0,0,1-3.9-10.51,10.28,10.28,0,0,0,4.38,5.59,26.85,26.85,0,0,1,.34-8.76c.09-1.16.05-3.06-2.16-2.79a2.44,2.44,0,0,1,1.5,2.81,3.33,3.33,0,0,0-2.3-2.75,3.3,3.3,0,0,1,5,.46c.52-1.27,2.79-2.9,4.25-3.25-.41,1.63.88,3.73-.22,6.18a2.71,2.71,0,0,0-1.82,1.56,2.93,2.93,0,0,1,3.39-.8,2.62,2.62,0,0,1,1.44,2.42,3.54,3.54,0,0,0-6,1.23,8.19,8.19,0,0,0,.78,7.32,8.9,8.9,0,0,1-.52-7.06,3.76,3.76,0,0,1,5-1.86l.1,0a3.11,3.11,0,0,0-3.55,1.51c-1.2,1.79-1.51,5.77,3,7.79a6.06,6.06,0,0,0,6.05-.62c2.37-2,.47-5.82-2.32-4.25a1.64,1.64,0,0,1,.62.11,1.85,1.85,0,0,0-.69.7,3,3,0,0,1,1-.53,1.14,1.14,0,0,1,.28.25,2.69,2.69,0,0,0-1.59,1.2,3.91,3.91,0,0,1,1.78-1,2.72,2.72,0,0,1,.11.25c-.76.24-2,.77-2.13,2a2.89,2.89,0,0,1,2.27-1.55v.32a2.7,2.7,0,0,0-2.3,2.15,3,3,0,0,1-.2-4,4.47,4.47,0,0,1,4.64-1.33,5.07,5.07,0,0,1,3.53,5.36,6.25,6.25,0,0,0-1.13-2.74c.66,1.1.38,2.41,1,3.63a2.48,2.48,0,0,0,.12.67,3.3,3.3,0,0,1-1-2.25c-.07,1.14,0,3.07,1.82,3.37a1.79,1.79,0,0,0,.34.22c-1.36.24-2.48-.45-2.64-2.7-.36,2.19,1,3.89,3.25,2.92a2.3,2.3,0,0,0,.45,0h.08a2.75,2.75,0,0,1-3.78-.16c.9,1.81,3.42,1.28,4.21.16h.31c-1,2.12-6,3-5.79-3.33,0,.15-.08.29-.12.43a7.26,7.26,0,0,1-3.93,2,6.23,6.23,0,0,0,3.73-1.27,4.16,4.16,0,0,0-.07.58,9.51,9.51,0,0,1-8.41.91c3,2,7.22.31,8.38-.4a3.38,3.38,0,0,0,0,.45c-1.4.75-6.93,3.24-11.22-1.14,2.79,4.58,9.2,2.94,11.3,1.76a.54.54,0,0,0,.06.3,15.4,15.4,0,0,1-2.1.9,9.83,9.83,0,0,1-7.62-.46c-4.46-2.38-5.82-9.05-2.68-15.57-4.28,6.65-2.21,12.83,1,15.71a7.73,7.73,0,0,0,2.5,1.43c-3-.13-5.82-2.41-6.94-7.08a7.62,7.62,0,0,0,.15,1.11,4.08,4.08,0,0,1-1.24-.79,3.84,3.84,0,0,0,1.3,1.14c.05.22.11.42.17.62a10.94,10.94,0,0,1-2.61-1.93,8.84,8.84,0,0,0,2.77,2.42,8.79,8.79,0,0,0,.35.82,10.26,10.26,0,0,1-2.42-1.73,7.82,7.82,0,0,0,2.83,2.49l.33.49a6.94,6.94,0,0,1-2-1,8.06,8.06,0,0,0,2.51,1.69,8.91,8.91,0,0,0,.83.81c-10.67-3.91-14.67-18.14-7.61-26.38-7.06,7.12-4.39,15.49-2.16,19.84-1.61-1.16-3-6.38-3-9.64a13.69,13.69,0,0,0,.39,5.76l-.22-.43a15.65,15.65,0,0,1-.6-9.21,4,4,0,0,0,.08-.9,40.08,40.08,0,0,1,.86-9.08,24.14,24.14,0,0,0-1.25,9.47,6.67,6.67,0,0,1-.27.86,27.62,27.62,0,0,1,.67-10.37c-2,5.07-1.35,10.81-1.17,12.4a10.16,10.16,0,0,0-.14,1.7,29.78,29.78,0,0,1,.75-16.24c.13-.37.25-.73.38-1.08,2.27.27,2.86,2,2.81,3.86a4.2,4.2,0,0,0-.65-1.24c-1,2.27-1.44,8-1.44,8.38a28,28,0,0,1,2.07-5,4.7,4.7,0,0,0,.21-.5c2-4.35.25-7.63-2.68-6.18,3.53-9,8.43-11.39,8.66-14.56a2.73,2.73,0,0,0-3.13-3.14c1.82,5-.8,5.81-4.95,13.92-14,27.28,9.34,46.4,25.65,37.71a3.44,3.44,0,0,0,2.61,1.73,6.28,6.28,0,0,0,5.53-2.93H421a6.29,6.29,0,0,0,5.53,2.93,3.46,3.46,0,0,0,2.62-1.73C445.5,444,468.81,424.84,454.84,397.56Zm-9.94-30.89a1.59,1.59,0,0,1-2.12.24c1.61,0,2.08-2,.63-3.16C444.9,364.31,445.42,365.89,444.9,366.67Zm-119.62.24a1.59,1.59,0,0,1-2.12-.24c-.53-.78,0-2.36,1.5-2.92-1.48,1.12-1,3.13.6,3.16ZM431.7,413.16c-.15,2.86-2.51,5-6.63,5.12a14,14,0,0,1-5.94-1.17v-4.24a8.36,8.36,0,0,0,3.34,2.31c2,.67,3.75.35,4.22-.78a1.4,1.4,0,0,0-.71-1.85h0c-.91-.54-2.55-.9-4.16-1.75-2.07-1.1-3-2.32-2.88-4.47a4.9,4.9,0,0,1,1.73-3.71,6.48,6.48,0,0,1,4.23-1.47,12.94,12.94,0,0,1,5.62.94v3.72a8.15,8.15,0,0,0-3-1.84c-1.86-.54-3.31-.2-3.72.64s0,1.54.93,2a44,44,0,0,1,4.48,1.84A4.64,4.64,0,0,1,431.7,413.16Zm1.2-14.2a1.85,1.85,0,1,1-1.84,1.86s0,0,0,0A1.84,1.84,0,0,1,432.9,399Zm-4.39-34.73a1.22,1.22,0,0,1,0,2.44h-9.35a3.81,3.81,0,0,0,0-1.07h7.91a3.36,3.36,0,0,0,1.38-.32A3.24,3.24,0,0,0,427,365h-8a4,4,0,0,0-.23-.74Zm-14.2,28.85c.36-.86,4.21-10.9,4.21-10.9a3,3,0,0,0-.36-2.45h6.15l5.53,13.32a8.52,8.52,0,0,0,2,3.07h-7.77a3.49,3.49,0,0,0,.16-3.07c-.12-.35-.43-1-.43-1h-6l-.4,1a3.39,3.39,0,0,0,.11,3.06h-5.08A7.83,7.83,0,0,0,414.31,393.08Zm2.48,24.78h-7.23a6.8,6.8,0,0,0,1-4.2v-7.93a6.88,6.88,0,0,0-1-4.21h7.23a6.88,6.88,0,0,0-1,4.21v7.89A6.8,6.8,0,0,0,416.79,417.86ZM412.35,392l-.4,4.11H398.43a6.93,6.93,0,0,0,1-4.22V384a6.9,6.9,0,0,0-1-4.21h7.33a6.83,6.83,0,0,0-1,4.21v9.36h4.08A5.56,5.56,0,0,0,412.35,392Zm-4.4,17.7c0,5.3-4.21,8.73-9.41,8.73s-9.4-3.43-9.4-8.73,4.21-8.71,9.4-8.71S407.95,404.42,407.95,409.7Zm-3.85-41.63c-.29,0-.49-.13-.37-.35.46-.83,2.1-.72,3.23-1a4.93,4.93,0,0,1-1.63,1.58c-.52.27-1.22.28-.9-.07.09-.1.36-.23.51-.39A2.2,2.2,0,0,1,404.1,368.07Zm.17,1a7.43,7.43,0,0,1-1.76.7c-.4.07-1,0-.89-.2s.74,0,1-.41a4.3,4.3,0,0,1-1.07.06c-.39-.06-.21-.52.31-.68C402.8,368.27,403.76,368.91,404.27,369.07Zm3-3.92a24.45,24.45,0,0,1,5.4-2.45,1.84,1.84,0,0,1,1.67.15,17.34,17.34,0,0,0-7.16,3,19.4,19.4,0,0,1,7.62-2.53c.07.1.2.32.26.43a12.28,12.28,0,0,0-6,1.88,14.7,14.7,0,0,1,6.16-1.39.75.75,0,0,0,.07.38c-1-.15-3.58.09-6.93,2.13,4.23-1.93,6.29-1.76,7-1.58a2.34,2.34,0,0,1-.07.45c-1.34-.38-3.45.23-5.33,1-1.08.45-2.25,1-3.49,1.56h0c.48-.48,1.78-2.17,2.26-2.73a6,6,0,0,1-2.11.89,8,8,0,0,0,.71-1.14Zm-3,1c.2-1,2-1,2.87-1.81-.19.48-.9,1.94-1.93,2.25-.11,0-.19,0-.18-.11a3.39,3.39,0,0,1,.18-.51s-.41.48-.61.54-.36-.26-.34-.35Zm-.18-1.43c0,.39-.44,2.79-1.15,3.06-.27.11-.18-.76-.14-.86a2.34,2.34,0,0,0-.31.61c-.15.33-.48.37-.56,0-.16-.61,1.49-2,2.15-2.8Zm-4.4,3.64c.47-1,1.89-1.87,2.25-2.4a9.26,9.26,0,0,1-1.12,2.89c-.5.57-.83.23-.58-.51a2.36,2.36,0,0,0-.4.63.13.13,0,0,1-.24,0,1,1,0,0,1,.08-.6Zm0,1.29a6.08,6.08,0,0,1,1.28.63c-.63.23-1.38.52-1.86.25-.09,0-.08-.08,0-.11s.56,0,.67-.19a1.18,1.18,0,0,1-1-.22c-.16-.21.23-.51.91-.39Zm-2.54.88c.56-.18.88.32,1.29.51-.72.15-1,.23-1.33.1-.07,0-.08-.09,0-.1a1.42,1.42,0,0,0,.6-.1,1.55,1.55,0,0,1-.69-.12c-.12-.07,0-.2.13-.28Zm-6.47,9.21a6.83,6.83,0,0,0-1,4.21v9.37h4.09a5.55,5.55,0,0,0,3.5-1.32l-.37,4.11H383.35a6.86,6.86,0,0,0,1-4.22V384a6.83,6.83,0,0,0-1-4.21Zm-7.33,33.88a6.8,6.8,0,0,0,1,4.2h-7.24a6.87,6.87,0,0,0,1-4.2v-9.41h-1.46a5.16,5.16,0,0,0-3.48,1.41l.37-4.07H387.9l.39,4.07a5.16,5.16,0,0,0-3.49-1.32h-1.46C383.34,404.62,383.35,413.62,383.35,413.62ZM363,417.82h-7a6.8,6.8,0,0,0,1-4.2v-7.89a6.89,6.89,0,0,0-1-4.21h9.22c2.33,0,3.53.19,4.57.88a4.37,4.37,0,0,1-2,7.87h0a6.72,6.72,0,0,1,3.13,2.86c.42.62.88,1.38,1.7,2.55a9,9,0,0,0,2.27,2.19H370a3.37,3.37,0,0,1-3.34-2c-.54-.87-.91-1.48-1.33-2.13a7.66,7.66,0,0,0-1.55-1.93,2.37,2.37,0,0,0-1.67-.5h-.24v2.31a7.23,7.23,0,0,0,1.08,4.24Zm4.76-38.11h13.38l.38,3.91a5.26,5.26,0,0,0-3.48-1.13h-4v3.4h5.09l.37,3.88a5.25,5.25,0,0,0-3.43-1.15h-2v4.7h4.62a5.24,5.24,0,0,0,3.48-1.13l-.37,3.92h-14a6.86,6.86,0,0,0,1-4.22V384a6.83,6.83,0,0,0-1-4.21Zm-1-12.27c.09.24-.65.21-1.11,0a8.1,8.1,0,0,1-1.2-.62l-.53-.33c.66-.08,1.91-.56,3-.07.6.28.59.68.1.68a6,6,0,0,1-1.27-.28c.29.46,1,.54,1.05.66Zm2.61.71c.61.33.25.6-.47.58a4.27,4.27,0,0,1-1-.07,1.5,1.5,0,0,0,.9.34c.25,0-.08.27-.67.21a9.34,9.34,0,0,1-2-.72c.79-.17,2-1,3.28-.3Zm4,3.09s0,.07-.09.09a2.57,2.57,0,0,1-1.63-.22,3.57,3.57,0,0,1,1.77-.49c.34.09,0,.45-.6.41.2.21.54.15.59.25Zm21.58-1.53a1.42,1.42,0,0,0,.76-1.57,2.17,2.17,0,0,0,.68-.39c.38.64,0,1.87-1.4,2Zm3.77-3.51a1.38,1.38,0,0,0,.48-1.46,1.33,1.33,0,0,0,.68-.53,1.46,1.46,0,0,1-1.12,2Zm-.23-1.9c-.21.09-.37,0-.29-.26a7.06,7.06,0,0,1,1.92-2.35l1.31.31c-1.51.54-2.46,2.15-2.9,2.34Zm-10.79-12.68c.74-1.43,5.24-2.32,12.62.41,6.61,2.44,10.48,6.16,9.33,8.19-.85,1.5-5.85,2.37-13.69-.85C390.16,357,386.58,353.69,387.68,351.62Zm3,5.73c1.72,1.21,2.55,6.19,6.16,7.33-2-.14-4.76-1.58-5.5-3.44-.44-1.14.14-2.17-.71-3.91Zm-.9,2.27a2.18,2.18,0,0,0,.12,1.41c.08-.75.39-1.6.94-1.78a4.09,4.09,0,0,1,0,.45v.73c.12,2.85,4.41,5,7,4.59-1.36,1.06-5,.34-7-2.1a7.33,7.33,0,0,0,5,3.68,10,10,0,0,1-4.64-2.18C389.54,362.94,388.82,361,389.78,359.62Zm3.33,8.17c-2.61-.84-4.1-3.19-3.56-4.73a5.67,5.67,0,0,0,1.12,1.56,5.88,5.88,0,0,0,2.44,3.19ZM387.9,366c-1.19-2.25-.23-3.73,1.11-4.29a8.79,8.79,0,0,0,.33,1,3.2,3.2,0,0,0,.7,3.47,6,6,0,0,0,5.07,2.14c-1.72,1.4-5.49-.5-6.32-2.09.47,1.46,2.47,2.9,3.83,3.43A7.47,7.47,0,0,1,387.9,366Zm2.37,4.37a2,2,0,0,0,.69.44,15.54,15.54,0,0,1-12.73.07c2.83.86,8.22,1.27,12.06-.51ZM371.2,366.7a1.86,1.86,0,0,0,1.66,2h.24a15.57,15.57,0,0,0,6,3.48h0a8.11,8.11,0,0,1-1.23-.28,11.18,11.18,0,0,1-5-2.85S370.62,369.29,371.2,366.7Zm.53,2.92c.46.24.2.44-.34.44a3.83,3.83,0,0,1-.75,0,1.15,1.15,0,0,0,.68.24c.19,0-.06.2-.5.16a6.61,6.61,0,0,1-1.51-.51C369.82,369.78,370.73,369.13,371.73,369.62Zm-1.17-2.1c0,.24,0,.46-.2.4s-.07-.51-.24-.76c0,.48-.06.69-.18.66-.47-.08-.4-1.65-.64-2.38A5.16,5.16,0,0,1,370.56,367.52Zm-1.45-.7c0,.56-.28.53-.35.37a3.26,3.26,0,0,0-.36-.9c.16.8-.26,1.14-.64.44a15.52,15.52,0,0,1-.72-3.11C367.46,364.49,369,365.68,369.11,366.82ZM365,362.11c.59,1,2,2,2,3.17a.36.36,0,0,1-.19.37c-.26.16-.22-.43-.54-.87,0,.12,0,.92-.23.76C365.29,365.1,364.9,362.48,365,362.11Zm-2.91-.67c.75.85,2.3,1,2.7,2.25.07.2,0,.5-.33.38a1.57,1.57,0,0,1-.47-.49c.06.3-.14.41-.31.27A7.51,7.51,0,0,1,362,361.44Zm-.1,2.31c1.09.44,2.51.64,3.08,1.4.19.24-.11.32-.38.27a2.17,2.17,0,0,1-.82-.33,6.14,6.14,0,0,0,.46.45c.27.39-.37.24-.85-.09A5.3,5.3,0,0,1,361.95,363.75Zm-9.18,1.87a3.5,3.5,0,0,1-.07-.45c.66-.18,2.72-.35,7,1.58-3.4-2.13-6-2.33-7-2.13a2.32,2.32,0,0,1,.06-.38c.88-.12,3.36.11,7.29,1.94a14.26,14.26,0,0,0-7.18-2.48c.06-.11.19-.33.26-.43a19.47,19.47,0,0,1,7.63,2.53,17.36,17.36,0,0,0-7.17-3,1.84,1.84,0,0,1,1.67-.15,33,33,0,0,1,7.32,3.57,4.08,4.08,0,0,0-.6.11c1.11.29,2.65,1.66,4.21,1.7a5.6,5.6,0,0,1-.85.31l-2-.7a7.49,7.49,0,0,0,1.62.82,20.32,20.32,0,0,0,2.08,1.18,31.8,31.8,0,0,1-4-1.48,19.14,19.14,0,0,0,4.76,2,4.09,4.09,0,0,0,.73.47c-4-.94-7.55-2.88-10.47-4.1C356.22,365.8,354.12,365.19,352.77,365.62Zm-.58,14.2h14l.36,4.06a5,5,0,0,0-3.4-1.33h-1.34V392a6.86,6.86,0,0,0,1,4.22h-7.23a6.93,6.93,0,0,0,1-4.22v-9.4h-1.35a5,5,0,0,0-3.41,1.33Zm-2,.57v3.72a7.87,7.87,0,0,0-3-1.83c-1.86-.55-3.3-.22-3.71.62s0,1.53.93,2a45.52,45.52,0,0,1,4.39,1.72,4.65,4.65,0,0,1,2.54,4.77c-.15,2.84-2.51,5-6.62,5.1a14.22,14.22,0,0,1-5.92-1.15v-4.26a7.94,7.94,0,0,0,3.33,2.31c2,.67,3.75.37,4.21-.77a1.41,1.41,0,0,0-.71-1.85c-.91-.54-2.54-.9-4.14-1.74-2.07-1.09-2.94-2.32-2.88-4.46a4.88,4.88,0,0,1,1.73-3.66,6.62,6.62,0,0,1,4.2-1.52,13,13,0,0,1,5.61,1Zm-10.63-16.16h9.69a4.91,4.91,0,0,0-.24.74h-8a3.2,3.2,0,0,0-1.42.32,3.33,3.33,0,0,0,1.41.33h7.9a4.76,4.76,0,0,0,0,1.07h-9.34a1.22,1.22,0,0,1,0-2.44h0Zm1.9,49.53-.39,1a3.33,3.33,0,0,0,.1,3h-5.08a7.54,7.54,0,0,0,1.93-3c.37-.87,4.21-10.9,4.21-10.9a3,3,0,0,0-.33-2.37H348s5.16,12.4,5.53,13.32a8.33,8.33,0,0,0,2,3h-7.82a3.45,3.45,0,0,0,.15-3c-.11-.34-.43-1-.43-1ZM343.7,433a1.22,1.22,0,0,1,0-2.44h80.62a1.22,1.22,0,0,1,0,2.44Z" transform="translate(-308.88 -330.62)" style="fill:#d50032"/><path d="M454.84,397.56c-4.15-8.11-6.77-8.94-4.94-13.94a2.72,2.72,0,0,0-3.12,3.08c.22,3.17,5.13,5.57,8.66,14.56-2.93-1.45-4.68,1.83-2.69,6.18.07.18.14.35.21.5a27.18,27.18,0,0,1,2.08,5c0-.35-.48-6.11-1.44-8.38a4,4,0,0,0-.7,1.25c0-1.84.54-3.59,2.81-3.86.13.35.26.71.38,1.08a29.68,29.68,0,0,1,.8,16.26,10.21,10.21,0,0,0-.15-1.7c.18-1.61.83-7.35-1.17-12.42a27,27,0,0,1,.64,10.37,5.4,5.4,0,0,1-.26-.86,24.55,24.55,0,0,0-1.25-9.47,41.39,41.39,0,0,1,.86,9.08,3.52,3.52,0,0,0,.08.9,15.64,15.64,0,0,1-.61,9.21l-.21.43a13.85,13.85,0,0,0,.39-5.76c0,3.26-1.37,8.48-3,9.64,2.23-4.35,4.91-12.72-2.15-19.84,7.09,8.24,3,22.47-7.65,26.4a8.91,8.91,0,0,0,.83-.81,8.06,8.06,0,0,0,2.51-1.69,6.9,6.9,0,0,1-1.94,1c.11-.16.22-.32.32-.49a7.82,7.82,0,0,0,2.81-2.45,10.06,10.06,0,0,1-2.42,1.73,6.74,6.74,0,0,0,.35-.82,8.84,8.84,0,0,0,2.77-2.42,11.09,11.09,0,0,1-2.6,1.93c.06-.2.11-.4.16-.62a3.93,3.93,0,0,0,1.32-1.18,4.34,4.34,0,0,1-1.24.79,9.3,9.3,0,0,0,.15-1.11c-1.12,4.67-3.95,6.95-6.95,7.08a7.53,7.53,0,0,0,2.5-1.43c3.2-2.88,5.28-9.06,1-15.71,3.16,6.56,1.78,13.19-2.67,15.66a9.86,9.86,0,0,1-7.63.46,16,16,0,0,1-2.1-.9.48.48,0,0,1,.07-.3c2.09,1.18,8.5,2.82,11.29-1.76-4.28,4.38-9.82,1.89-11.22,1.14v-.45c1.15.71,5.34,2.38,8.38.4a9.54,9.54,0,0,1-8.42-.91,2,2,0,0,0-.06-.58,6.19,6.19,0,0,0,3.72,1.27,7.16,7.16,0,0,1-3.92-2,1.5,1.5,0,0,0-.13-.43c.27,6.36-4.76,5.45-5.79,3.33h.31c.8,1.12,3.31,1.65,4.22-.16a2.75,2.75,0,0,1-3.78.16h.07a2.3,2.3,0,0,0,.45,0c2.22,1,3.61-.73,3.25-2.92-.15,2.25-1.28,2.94-2.64,2.7a1.52,1.52,0,0,0,.34-.22c1.81-.3,1.89-2.23,1.82-3.37a3.3,3.3,0,0,1-1,2.25,2.48,2.48,0,0,0,.12-.67c.59-1.22.31-2.53,1-3.63a6.28,6.28,0,0,0-1.14,2.74,5.08,5.08,0,0,1,3.53-5.36,4.47,4.47,0,0,1,4.64,1.33,3,3,0,0,1-.19,4,2.72,2.72,0,0,0-2.3-2.15,1.73,1.73,0,0,1,0-.32,2.92,2.92,0,0,1,2.28,1.55,2.67,2.67,0,0,0-2.14-2,2.72,2.72,0,0,1,.11-.25,4,4,0,0,1,1.79,1,2.73,2.73,0,0,0-1.61-1.22,1.35,1.35,0,0,1,.28-.25,3,3,0,0,1,1,.53,1.91,1.91,0,0,0-.68-.7,1.56,1.56,0,0,1,.62-.11c-2.8-1.57-4.7,2.25-2.33,4.25a6.08,6.08,0,0,0,6.06.62c4.46-2,4.15-6,3-7.79A3.13,3.13,0,0,0,437,422.5a3.78,3.78,0,0,1,5.06,1.74l0,.07a9,9,0,0,1-.42,7.06,8.19,8.19,0,0,0,.78-7.32c-1.15-2.64-4.16-3.28-6-1.23a2.61,2.61,0,0,1,1.43-2.46,2.92,2.92,0,0,1,3.38.8,2.7,2.7,0,0,0-1.81-1.54c-1.11-2.45.18-4.55-.22-6.18a7.67,7.67,0,0,1,4.24,3.25h0a3.3,3.3,0,0,1,4.95-.46h0a3.36,3.36,0,0,0-2.3,2.75,2.46,2.46,0,0,1,1.48-2.81c-2.21-.27-2.25,1.63-2.15,2.79a27.23,27.23,0,0,1,.33,8.76,10.24,10.24,0,0,0,4.38-5.59,14.66,14.66,0,0,1-3.92,10.49c4.12-3.33,5.45-9.58,4.92-14.06a11.44,11.44,0,0,0-6.41-9.14,8.1,8.1,0,0,0-3.93-.8c1-1.94,3.58-2.44,6-1.28-.7-.58-5.15-4.62-2.18-10.11.75,2.61,4.1,3,4.88,8.5,0-2.59.59-4.36,2.38-5.11-3.07-6.73-12.24-10.89-16.6-19-2.63-4.89-2.5-9.51-2.68-12s-1-5.72-3.47-6.43c4-1,7.13,3.29,7.37,10.17a2.55,2.55,0,0,0-.48.27,13.77,13.77,0,0,0-2-6.85,22.57,22.57,0,0,1,1.56,7.26,2.36,2.36,0,0,0-.28.42,20.31,20.31,0,0,0-1.37-6.06,31.55,31.55,0,0,1,1,7,5.37,5.37,0,0,0,.49,3.26c-1-4.9,2.65-5.22,3.42-5.07-2.23,2.29-1.94,6.88-.77,8.86a5.05,5.05,0,0,1,1-5.16,6.14,6.14,0,0,1,.74-4.3,7.51,7.51,0,0,0-2,0c-1-4.21-.07-7.24,1.5-8.72,1.3-1.22,3.17-1.16,3.58,0a1.21,1.21,0,0,1-.52,1.5c-.52.25-1.44.08-1.73-1.07,0,1.87,2.38,3.89,4.43,2.52a2.87,2.87,0,0,1-2.07,2,2,2,0,0,1-1.6-1.65,2.6,2.6,0,0,0,.38,1.6,2.3,2.3,0,0,1-.6-.27,2.58,2.58,0,0,1-.6-2.08,2.1,2.1,0,0,0-.23,1.27,3,3,0,0,1,0-3.19,3.17,3.17,0,0,0-.37,4.43,3.09,3.09,0,0,0,4.12.63,4.87,4.87,0,0,0,.28-7.91,6.61,6.61,0,0,0-8.54.66,5.43,5.43,0,0,1,4.67-.81,7.26,7.26,0,0,0-3.76,5.76,5,5,0,0,0-.46-1.2A5.88,5.88,0,0,1,437.9,363a4.76,4.76,0,0,0-2,2.81c-.11-.17-.23-.35-.36-.53a4,4,0,0,1,1.3-2.12,3,3,0,0,0-1.57,1.77l-.06-.07a2.75,2.75,0,0,1,.29-1.67,4.7,4.7,0,0,0-.75,1.15c-1.7-1.81-4.18-2.8-6.8-1.15h-9.73a5,5,0,0,0-1.35-1.23c1.39,1,1.14,6.07-3.6,6.27a3.92,3.92,0,0,0,4.76-4.74c.89,2.28-.09,4.81-1.79,5.47-1.9.72-4.19.06-4.56-2.3,2.07,1.31,5.52-1,4.65-3.74s-4.92-.82-8.63,1.4h0a3.43,3.43,0,0,0,.23-.8c.18-.28.51-.86.4-.93-1.22,2-3.13,1.92-3.85,2.49a3.63,3.63,0,0,0,0-1c.21-.39.41-.74.32-.9-.79,1.52-1.88,2-2.46,2.66a1.63,1.63,0,0,0,0-.44,5.47,5.47,0,0,0,.47-.89.69.69,0,0,0,.06-.39,10.3,10.3,0,0,1-3,3v-.35a3,3,0,0,1-1.73.59c0,1.56-.84,3.52-4.31,3.38a9,9,0,0,1-2.52,1.39l-.7.25a15.28,15.28,0,0,1-4.23.54h-.13a16.19,16.19,0,0,0,7.62-2.53c2.8.13,4-1.49,3.93-3.34,2.1-.13,4-1.37,3.43-3.79,2.57-1.64,10.13,0,9.69-3.93-.21-1.78-2.87-4.38-7.93-6.7-4.25-2-9.68-3.32-13.79-2.64-2.9.48-3,2.3-1.89,4.09s2.66,2.44,3,4.42a2.73,2.73,0,0,0-1.56,2.79,2.94,2.94,0,0,0-2,2.84c-3.49,2.35-7.95,1.36-9.61.54a1.78,1.78,0,0,0-1.77-1.79l-.31,0c.56,0,.84.84,1,1.39a1.05,1.05,0,0,0-1,.1,1.93,1.93,0,0,1,1.09.42,11.79,11.79,0,0,0,11,.16,6.31,6.31,0,0,0,.56,2.46c-2.62,1.42-7.14,2.08-12.29.42,3.91,1.8,8.55,2.56,12.81.55a7.71,7.71,0,0,0,.55.73c-3.53,1.64-11.19,2-15.64-2a2.59,2.59,0,0,1,1.24-2.56,2.65,2.65,0,0,0-1.7,1.89c-.36-.26-.89-1.66,1.07-3.14a4.35,4.35,0,0,0-1.75,1.43,16,16,0,0,1-1.58-1.67,6.29,6.29,0,0,0,1.29,2.12l-.12.2a22.24,22.24,0,0,1-1.76-2.62,1.75,1.75,0,0,1,1.33-1.63,1.58,1.58,0,0,0-1.53,1.62,1.88,1.88,0,0,1,1.45-2.78A3.9,3.9,0,0,0,369,361.1a22.46,22.46,0,0,1-1.14-3.63,1.61,1.61,0,0,1,1-.59,7.41,7.41,0,0,1-.51-2.64,1.66,1.66,0,0,0-.46,0c-.27-1.19,1-1.46,1.33-1.43-1.61-.49-3.18.42-3,1.33a1.13,1.13,0,0,0,.69.71,27.31,27.31,0,0,0,1.58,7,1.35,1.35,0,0,0,.67,1.79l.14.05a20.82,20.82,0,0,0,1.29,2.2,3.64,3.64,0,0,1-1.6-1.51,5.49,5.49,0,0,1-.13.66c-.49-.71-2.25-1.81-2.68-4.29-.2.48.33,1.71.45,2a2.29,2.29,0,0,1,0,.68A8.26,8.26,0,0,1,364,359a.6.6,0,0,0,0,.4,12.24,12.24,0,0,0,.46,1.67,2,2,0,0,1,.16.7,2.7,2.7,0,0,0,0,.75c-1.37-1.09-2.6-.75-4-3.66a1,1,0,0,0,.09.43c.17.41.45,1,.62,1.27a7.9,7.9,0,0,0,1,2.92,5.41,5.41,0,0,1-2.93-2.25c-.06.1.15.38.43.73.71.85,1.14,1.17,1.21,1.31a8.57,8.57,0,0,0,1.71,2.6c-4.14-2.57-10-6.35-11-2.89-.89,2.72,2.51,5,4.59,3.65-.37,2.36-2.67,3-4.56,2.3-1.71-.66-2.69-3.19-1.8-5.47a3.92,3.92,0,0,0,4.76,4.74c-4.74-.2-5-5.22-3.59-6.27a4.74,4.74,0,0,0-1.35,1.23h-9.73c-2.63-1.65-5.11-.66-6.81,1.15a4.7,4.7,0,0,0-.75-1.15,2.75,2.75,0,0,1,.29,1.67l-.06.07a3,3,0,0,0-1.57-1.77,4,4,0,0,1,1.31,2.12c-.14.18-.26.36-.37.53a4.72,4.72,0,0,0-2.07-2.81,6,6,0,0,1,1.66,3.52,5,5,0,0,0-.46,1.2,7.29,7.29,0,0,0-3.77-5.76,5.43,5.43,0,0,1,4.67.81,6.6,6.6,0,0,0-8.53-.66,4.87,4.87,0,0,0,.25,8,3.09,3.09,0,0,0,4.12-.63,3.16,3.16,0,0,0-.37-4.43,3,3,0,0,1,0,3.19,2,2,0,0,0-.23-1.27,2.54,2.54,0,0,1-.6,2.08,2.3,2.3,0,0,1-.6.27,2.47,2.47,0,0,0,.38-1.6,2,2,0,0,1-1.56,1.64,2.83,2.83,0,0,1-2.06-2c2,1.37,4.45-.65,4.42-2.52-.29,1.15-1.21,1.32-1.73,1.07a1.21,1.21,0,0,1-.52-1.5c.42-1.17,2.29-1.23,3.58,0,1.57,1.48,2.49,4.51,1.5,8.72a7.51,7.51,0,0,0-2,0,6,6,0,0,1,.74,4.3,5,5,0,0,1,1,5.16c1.17-2,1.46-6.57-.77-8.86.77-.15,4.39.17,3.42,5.07a5.37,5.37,0,0,0,.49-3.26,31.55,31.55,0,0,1,1-7,20.31,20.31,0,0,0-1.37,6.06,3,3,0,0,0-.27-.42,22.5,22.5,0,0,1,1.55-7.26,13.77,13.77,0,0,0-2.12,6.79,2.27,2.27,0,0,0-.48-.27c.25-6.88,3.37-11.18,7.37-10.17-2.49.71-3.3,4.06-3.47,6.43s0,7.09-2.65,12c-4.36,8.11-13.53,12.27-16.6,19,1.79.75,2.41,2.52,2.38,5.11.79-5.49,4.13-5.89,4.89-8.5,3,5.49-1.49,9.53-2.19,10.11,2.45-1.16,5-.66,6,1.28a8.14,8.14,0,0,0-3.93.8,11.44,11.44,0,0,0-6.41,9.14c-.53,4.48.8,10.73,4.93,14.06a14.63,14.63,0,0,1-3.9-10.51,10.28,10.28,0,0,0,4.38,5.59,26.85,26.85,0,0,1,.34-8.76c.09-1.16.05-3.06-2.16-2.79a2.44,2.44,0,0,1,1.5,2.81,3.33,3.33,0,0,0-2.3-2.75,3.3,3.3,0,0,1,5,.46c.52-1.27,2.79-2.9,4.25-3.25-.41,1.63.88,3.73-.22,6.18a2.71,2.71,0,0,0-1.82,1.56,2.93,2.93,0,0,1,3.39-.8,2.62,2.62,0,0,1,1.44,2.42,3.54,3.54,0,0,0-6,1.23,8.19,8.19,0,0,0,.78,7.32,8.9,8.9,0,0,1-.52-7.06,3.76,3.76,0,0,1,5-1.86l.1,0a3.11,3.11,0,0,0-3.55,1.51c-1.2,1.79-1.51,5.77,3,7.79a6.06,6.06,0,0,0,6.05-.62c2.37-2,.47-5.82-2.32-4.25a1.64,1.64,0,0,1,.62.11,1.85,1.85,0,0,0-.69.7,3,3,0,0,1,1-.53,1.14,1.14,0,0,1,.28.25,2.69,2.69,0,0,0-1.59,1.2,3.91,3.91,0,0,1,1.78-1,2.72,2.72,0,0,1,.11.25c-.76.24-2,.77-2.13,2a2.89,2.89,0,0,1,2.27-1.55v.32a2.7,2.7,0,0,0-2.3,2.15,3,3,0,0,1-.2-4,4.47,4.47,0,0,1,4.64-1.33,5.07,5.07,0,0,1,3.53,5.36,6.25,6.25,0,0,0-1.13-2.74c.66,1.1.38,2.41,1,3.63a2.48,2.48,0,0,0,.12.67,3.3,3.3,0,0,1-1-2.25c-.07,1.14,0,3.07,1.82,3.37a1.79,1.79,0,0,0,.34.22c-1.36.24-2.48-.45-2.64-2.7-.36,2.19,1,3.89,3.25,2.92a2.3,2.3,0,0,0,.45,0h.08a2.75,2.75,0,0,1-3.78-.16c.9,1.81,3.42,1.28,4.21.16h.31c-1,2.12-6,3-5.79-3.33,0,.15-.08.29-.12.43a7.26,7.26,0,0,1-3.93,2,6.23,6.23,0,0,0,3.73-1.27,4.16,4.16,0,0,0-.07.58,9.51,9.51,0,0,1-8.41.91c3,2,7.22.31,8.38-.4a3.38,3.38,0,0,0,0,.45c-1.4.75-6.93,3.24-11.22-1.14,2.79,4.58,9.2,2.94,11.3,1.76a.54.54,0,0,0,.06.3,15.4,15.4,0,0,1-2.1.9,9.83,9.83,0,0,1-7.62-.46c-4.46-2.38-5.82-9.05-2.68-15.57-4.28,6.65-2.21,12.83,1,15.71a7.73,7.73,0,0,0,2.5,1.43c-3-.13-5.82-2.41-6.94-7.08a7.62,7.62,0,0,0,.15,1.11,4.08,4.08,0,0,1-1.24-.79,3.84,3.84,0,0,0,1.3,1.14c.05.22.11.42.17.62a10.94,10.94,0,0,1-2.61-1.93,8.84,8.84,0,0,0,2.77,2.42,8.79,8.79,0,0,0,.35.82,10.26,10.26,0,0,1-2.42-1.73,7.82,7.82,0,0,0,2.83,2.49l.33.49a6.94,6.94,0,0,1-2-1,8.06,8.06,0,0,0,2.51,1.69,8.91,8.91,0,0,0,.83.81c-10.67-3.91-14.67-18.14-7.61-26.38-7.06,7.12-4.39,15.49-2.16,19.84-1.61-1.16-3-6.38-3-9.64a13.69,13.69,0,0,0,.39,5.76l-.22-.43a15.65,15.65,0,0,1-.6-9.21,4,4,0,0,0,.08-.9,40.08,40.08,0,0,1,.86-9.08,24.14,24.14,0,0,0-1.25,9.47,6.67,6.67,0,0,1-.27.86,27.62,27.62,0,0,1,.67-10.37c-2,5.07-1.35,10.81-1.17,12.4a10.16,10.16,0,0,0-.14,1.7,29.78,29.78,0,0,1,.75-16.24c.13-.37.25-.73.38-1.08,2.27.27,2.86,2,2.81,3.86a4.2,4.2,0,0,0-.65-1.24c-1,2.27-1.44,8-1.44,8.38a28,28,0,0,1,2.07-5,4.7,4.7,0,0,0,.21-.5c2-4.35.25-7.63-2.68-6.18,3.53-9,8.43-11.39,8.66-14.56a2.73,2.73,0,0,0-3.13-3.14c1.82,5-.8,5.81-4.95,13.92-14,27.28,9.34,46.4,25.65,37.71a3.44,3.44,0,0,0,2.61,1.73,6.28,6.28,0,0,0,5.53-2.93H421a6.29,6.29,0,0,0,5.53,2.93,3.46,3.46,0,0,0,2.62-1.73C445.5,444,468.81,424.84,454.84,397.56Zm-9.94-30.89a1.59,1.59,0,0,1-2.12.24c1.61,0,2.08-2,.63-3.16C444.9,364.31,445.42,365.89,444.9,366.67Zm-119.62.24a1.59,1.59,0,0,1-2.12-.24c-.53-.78,0-2.36,1.5-2.92-1.48,1.12-1,3.13.6,3.16ZM431.7,413.16c-.15,2.86-2.51,5-6.63,5.12a14,14,0,0,1-5.94-1.17v-4.24a8.36,8.36,0,0,0,3.34,2.31c2,.67,3.75.35,4.22-.78a1.4,1.4,0,0,0-.71-1.85h0c-.91-.54-2.55-.9-4.16-1.75-2.07-1.1-3-2.32-2.88-4.47a4.9,4.9,0,0,1,1.73-3.71,6.48,6.48,0,0,1,4.23-1.47,12.94,12.94,0,0,1,5.62.94v3.72a8.15,8.15,0,0,0-3-1.84c-1.86-.54-3.31-.2-3.72.64s0,1.54.93,2a44,44,0,0,1,4.48,1.84A4.64,4.64,0,0,1,431.7,413.16Zm1.2-14.2a1.85,1.85,0,1,1-1.84,1.86s0,0,0,0A1.84,1.84,0,0,1,432.9,399Zm-4.39-34.73a1.22,1.22,0,0,1,0,2.44h-9.35a3.81,3.81,0,0,0,0-1.07h7.91a3.36,3.36,0,0,0,1.38-.32A3.24,3.24,0,0,0,427,365h-8a4,4,0,0,0-.23-.74Zm-14.2,28.85c.36-.86,4.21-10.9,4.21-10.9a3,3,0,0,0-.36-2.45h6.15l5.53,13.32a8.52,8.52,0,0,0,2,3.07h-7.77a3.49,3.49,0,0,0,.16-3.07c-.12-.35-.43-1-.43-1h-6l-.4,1a3.39,3.39,0,0,0,.11,3.06h-5.08A7.83,7.83,0,0,0,414.31,393.08Zm2.48,24.78h-7.23a6.8,6.8,0,0,0,1-4.2v-7.93a6.88,6.88,0,0,0-1-4.21h7.23a6.88,6.88,0,0,0-1,4.21v7.89A6.8,6.8,0,0,0,416.79,417.86ZM412.35,392l-.4,4.11H398.43a6.93,6.93,0,0,0,1-4.22V384a6.9,6.9,0,0,0-1-4.21h7.33a6.83,6.83,0,0,0-1,4.21v9.36h4.08A5.56,5.56,0,0,0,412.35,392Zm-4.4,17.7c0,5.3-4.21,8.73-9.41,8.73s-9.4-3.43-9.4-8.73,4.21-8.71,9.4-8.71S407.95,404.42,407.95,409.7Zm-3.85-41.63c-.29,0-.49-.13-.37-.35.46-.83,2.1-.72,3.23-1a4.93,4.93,0,0,1-1.63,1.58c-.52.27-1.22.28-.9-.07.09-.1.36-.23.51-.39A2.2,2.2,0,0,1,404.1,368.07Zm.17,1a7.43,7.43,0,0,1-1.76.7c-.4.07-1,0-.89-.2s.74,0,1-.41a4.3,4.3,0,0,1-1.07.06c-.39-.06-.21-.52.31-.68C402.8,368.27,403.76,368.91,404.27,369.07Zm3-3.92a24.45,24.45,0,0,1,5.4-2.45,1.84,1.84,0,0,1,1.67.15,17.34,17.34,0,0,0-7.16,3,19.4,19.4,0,0,1,7.62-2.53c.07.1.2.32.26.43a12.28,12.28,0,0,0-6,1.88,14.7,14.7,0,0,1,6.16-1.39.75.75,0,0,0,.07.38c-1-.15-3.58.09-6.93,2.13,4.23-1.93,6.29-1.76,7-1.58a2.34,2.34,0,0,1-.07.45c-1.34-.38-3.45.23-5.33,1-1.08.45-2.25,1-3.49,1.56h0c.48-.48,1.78-2.17,2.26-2.73a6,6,0,0,1-2.11.89,8,8,0,0,0,.71-1.14Zm-3,1c.2-1,2-1,2.87-1.81-.19.48-.9,1.94-1.93,2.25-.11,0-.19,0-.18-.11a3.39,3.39,0,0,1,.18-.51s-.41.48-.61.54-.36-.26-.34-.35Zm-.18-1.43c0,.39-.44,2.79-1.15,3.06-.27.11-.18-.76-.14-.86a2.34,2.34,0,0,0-.31.61c-.15.33-.48.37-.56,0-.16-.61,1.49-2,2.15-2.8Zm-4.4,3.64c.47-1,1.89-1.87,2.25-2.4a9.26,9.26,0,0,1-1.12,2.89c-.5.57-.83.23-.58-.51a2.36,2.36,0,0,0-.4.63.13.13,0,0,1-.24,0,1,1,0,0,1,.08-.6Zm0,1.29a6.08,6.08,0,0,1,1.28.63c-.63.23-1.38.52-1.86.25-.09,0-.08-.08,0-.11s.56,0,.67-.19a1.18,1.18,0,0,1-1-.22c-.16-.21.23-.51.91-.39Zm-2.54.88c.56-.18.88.32,1.29.51-.72.15-1,.23-1.33.1-.07,0-.08-.09,0-.1a1.42,1.42,0,0,0,.6-.1,1.55,1.55,0,0,1-.69-.12c-.12-.07,0-.2.13-.28Zm-6.47,9.21a6.83,6.83,0,0,0-1,4.21v9.37h4.09a5.55,5.55,0,0,0,3.5-1.32l-.37,4.11H383.35a6.86,6.86,0,0,0,1-4.22V384a6.83,6.83,0,0,0-1-4.21Zm-7.33,33.88a6.8,6.8,0,0,0,1,4.2h-7.24a6.87,6.87,0,0,0,1-4.2v-9.41h-1.46a5.16,5.16,0,0,0-3.48,1.41l.37-4.07H387.9l.39,4.07a5.16,5.16,0,0,0-3.49-1.32h-1.46C383.34,404.62,383.35,413.62,383.35,413.62ZM363,417.82h-7a6.8,6.8,0,0,0,1-4.2v-7.89a6.89,6.89,0,0,0-1-4.21h9.22c2.33,0,3.53.19,4.57.88a4.37,4.37,0,0,1-2,7.87h0a6.72,6.72,0,0,1,3.13,2.86c.42.62.88,1.38,1.7,2.55a9,9,0,0,0,2.27,2.19H370a3.37,3.37,0,0,1-3.34-2c-.54-.87-.91-1.48-1.33-2.13a7.66,7.66,0,0,0-1.55-1.93,2.37,2.37,0,0,0-1.67-.5h-.24v2.31a7.23,7.23,0,0,0,1.08,4.24Zm4.76-38.11h13.38l.38,3.91a5.26,5.26,0,0,0-3.48-1.13h-4v3.4h5.09l.37,3.88a5.25,5.25,0,0,0-3.43-1.15h-2v4.7h4.62a5.24,5.24,0,0,0,3.48-1.13l-.37,3.92h-14a6.86,6.86,0,0,0,1-4.22V384a6.83,6.83,0,0,0-1-4.21Zm-1-12.27c.09.24-.65.21-1.11,0a8.1,8.1,0,0,1-1.2-.62l-.53-.33c.66-.08,1.91-.56,3-.07.6.28.59.68.1.68a6,6,0,0,1-1.27-.28c.29.46,1,.54,1.05.66Zm2.61.71c.61.33.25.6-.47.58a4.27,4.27,0,0,1-1-.07,1.5,1.5,0,0,0,.9.34c.25,0-.08.27-.67.21a9.34,9.34,0,0,1-2-.72c.79-.17,2-1,3.28-.3Zm4,3.09s0,.07-.09.09a2.57,2.57,0,0,1-1.63-.22,3.57,3.57,0,0,1,1.77-.49c.34.09,0,.45-.6.41.2.21.54.15.59.25Zm21.58-1.53a1.42,1.42,0,0,0,.76-1.57,2.17,2.17,0,0,0,.68-.39c.38.64,0,1.87-1.4,2Zm3.77-3.51a1.38,1.38,0,0,0,.48-1.46,1.33,1.33,0,0,0,.68-.53,1.46,1.46,0,0,1-1.12,2Zm-.23-1.9c-.21.09-.37,0-.29-.26a7.06,7.06,0,0,1,1.92-2.35l1.31.31c-1.51.54-2.46,2.15-2.9,2.34Zm-10.79-12.68c.74-1.43,5.24-2.32,12.62.41,6.61,2.44,10.48,6.16,9.33,8.19-.85,1.5-5.85,2.37-13.69-.85C390.16,357,386.58,353.69,387.68,351.62Zm3,5.73c1.72,1.21,2.55,6.19,6.16,7.33-2-.14-4.76-1.58-5.5-3.44-.44-1.14.14-2.17-.71-3.91Zm-.9,2.27a2.18,2.18,0,0,0,.12,1.41c.08-.75.39-1.6.94-1.78a4.09,4.09,0,0,1,0,.45v.73c.12,2.85,4.41,5,7,4.59-1.36,1.06-5,.34-7-2.1a7.33,7.33,0,0,0,5,3.68,10,10,0,0,1-4.64-2.18C389.54,362.94,388.82,361,389.78,359.62Zm3.33,8.17c-2.61-.84-4.1-3.19-3.56-4.73a5.67,5.67,0,0,0,1.12,1.56,5.88,5.88,0,0,0,2.44,3.19ZM387.9,366c-1.19-2.25-.23-3.73,1.11-4.29a8.79,8.79,0,0,0,.33,1,3.2,3.2,0,0,0,.7,3.47,6,6,0,0,0,5.07,2.14c-1.72,1.4-5.49-.5-6.32-2.09.47,1.46,2.47,2.9,3.83,3.43A7.47,7.47,0,0,1,387.9,366Zm2.37,4.37a2,2,0,0,0,.69.44,15.54,15.54,0,0,1-12.73.07c2.83.86,8.22,1.27,12.06-.51ZM371.2,366.7a1.86,1.86,0,0,0,1.66,2h.24a15.57,15.57,0,0,0,6,3.48h0a8.11,8.11,0,0,1-1.23-.28,11.18,11.18,0,0,1-5-2.85S370.62,369.29,371.2,366.7Zm.53,2.92c.46.24.2.44-.34.44a3.83,3.83,0,0,1-.75,0,1.15,1.15,0,0,0,.68.24c.19,0-.06.2-.5.16a6.61,6.61,0,0,1-1.51-.51C369.82,369.78,370.73,369.13,371.73,369.62Zm-1.17-2.1c0,.24,0,.46-.2.4s-.07-.51-.24-.76c0,.48-.06.69-.18.66-.47-.08-.4-1.65-.64-2.38A5.16,5.16,0,0,1,370.56,367.52Zm-1.45-.7c0,.56-.28.53-.35.37a3.26,3.26,0,0,0-.36-.9c.16.8-.26,1.14-.64.44a15.52,15.52,0,0,1-.72-3.11C367.46,364.49,369,365.68,369.11,366.82ZM365,362.11c.59,1,2,2,2,3.17a.36.36,0,0,1-.19.37c-.26.16-.22-.43-.54-.87,0,.12,0,.92-.23.76C365.29,365.1,364.9,362.48,365,362.11Zm-2.91-.67c.75.85,2.3,1,2.7,2.25.07.2,0,.5-.33.38a1.57,1.57,0,0,1-.47-.49c.06.3-.14.41-.31.27A7.51,7.51,0,0,1,362,361.44Zm-.1,2.31c1.09.44,2.51.64,3.08,1.4.19.24-.11.32-.38.27a2.17,2.17,0,0,1-.82-.33,6.14,6.14,0,0,0,.46.45c.27.39-.37.24-.85-.09A5.3,5.3,0,0,1,361.95,363.75Zm-9.18,1.87a3.5,3.5,0,0,1-.07-.45c.66-.18,2.72-.35,7,1.58-3.4-2.13-6-2.33-7-2.13a2.32,2.32,0,0,1,.06-.38c.88-.12,3.36.11,7.29,1.94a14.26,14.26,0,0,0-7.18-2.48c.06-.11.19-.33.26-.43a19.47,19.47,0,0,1,7.63,2.53,17.36,17.36,0,0,0-7.17-3,1.84,1.84,0,0,1,1.67-.15,33,33,0,0,1,7.32,3.57,4.08,4.08,0,0,0-.6.11c1.11.29,2.65,1.66,4.21,1.7a5.6,5.6,0,0,1-.85.31l-2-.7a7.49,7.49,0,0,0,1.62.82,20.32,20.32,0,0,0,2.08,1.18,31.8,31.8,0,0,1-4-1.48,19.14,19.14,0,0,0,4.76,2,4.09,4.09,0,0,0,.73.47c-4-.94-7.55-2.88-10.47-4.1C356.22,365.8,354.12,365.19,352.77,365.62Zm-.58,14.2h14l.36,4.06a5,5,0,0,0-3.4-1.33h-1.34V392a6.86,6.86,0,0,0,1,4.22h-7.23a6.93,6.93,0,0,0,1-4.22v-9.4h-1.35a5,5,0,0,0-3.41,1.33Zm-2,.57v3.72a7.87,7.87,0,0,0-3-1.83c-1.86-.55-3.3-.22-3.71.62s0,1.53.93,2a45.52,45.52,0,0,1,4.39,1.72,4.65,4.65,0,0,1,2.54,4.77c-.15,2.84-2.51,5-6.62,5.1a14.22,14.22,0,0,1-5.92-1.15v-4.26a7.94,7.94,0,0,0,3.33,2.31c2,.67,3.75.37,4.21-.77a1.41,1.41,0,0,0-.71-1.85c-.91-.54-2.54-.9-4.14-1.74-2.07-1.09-2.94-2.32-2.88-4.46a4.88,4.88,0,0,1,1.73-3.66,6.62,6.62,0,0,1,4.2-1.52,13,13,0,0,1,5.61,1Zm-10.63-16.16h9.69a4.91,4.91,0,0,0-.24.74h-8a3.2,3.2,0,0,0-1.42.32,3.33,3.33,0,0,0,1.41.33h7.9a4.76,4.76,0,0,0,0,1.07h-9.34a1.22,1.22,0,0,1,0-2.44h0Zm1.9,49.53-.39,1a3.33,3.33,0,0,0,.1,3h-5.08a7.54,7.54,0,0,0,1.93-3c.37-.87,4.21-10.9,4.21-10.9a3,3,0,0,0-.33-2.37H348s5.16,12.4,5.53,13.32a8.33,8.33,0,0,0,2,3h-7.82a3.45,3.45,0,0,0,.15-3c-.11-.34-.43-1-.43-1ZM343.7,433a1.22,1.22,0,0,1,0-2.44h80.62a1.22,1.22,0,0,1,0,2.44Z" transform="translate(-308.88 -330.62)" style="fill:#d50032"/><path d="M345.9,431.47a6.22,6.22,0,0,0-1.8.26,6,6,0,0,0,1.8.27h76.2a5.91,5.91,0,0,0,1.8-.27,6.22,6.22,0,0,0-1.8-.26Z" transform="translate(-308.88 -330.62)" style="fill:#d50032"/><path d="M406.31,360.5c1-.14,1.66-.45,1.91-1,.5-1.1-1-2.43-1-2.43s-1.56,0-4.31,2.46c.53-1.42,2.21-2.52,3.61-3.09a25.84,25.84,0,0,0-10-4.6,34.66,34.66,0,0,1,7.6,3.92c.11.1.08.2,0,.24a6.29,6.29,0,0,0-3.13,2.84,12.69,12.69,0,0,1-5.23-1.07,6.44,6.44,0,0,0-.9-3.23,7.75,7.75,0,0,1,.43,3.08c-.4-.16-.81-.33-1.24-.53a7.3,7.3,0,0,0-3-5.76s-1.64.14-2,1c-.21.53-.14,1.74,2.4,3.55C395.9,359.12,403.11,361,406.31,360.5Zm-14.24-4.42a6.37,6.37,0,0,0-.63-2.23,5.11,5.11,0,0,1,.95,2.4Zm.82.44a6.63,6.63,0,0,0-1.32-3.67,5.66,5.66,0,0,1,1.85,3.93Z" transform="translate(-308.88 -330.62)" style="fill:#d50032"/><path d="M446.4,380.62a4.4,4.4,0,0,0-6.63-3.78,3.31,3.31,0,0,1,3.63,1c-3.22.51-3.5,4.74-2.06,7.55,2.85,5.52,6.92,7.2,11.05,13-2.14-5-9.05-9.42-5.79-13.84a4.77,4.77,0,0,0-1.65,3.07C437.82,382.12,443.75,378,446.4,380.62Z" transform="translate(-308.88 -330.62)" style="fill:#d50032"/><path d="M452.56,400.42H453a16.77,16.77,0,0,0-5.1-6.07A24.1,24.1,0,0,1,452.56,400.42Z" transform="translate(-308.88 -330.62)" style="fill:#d50032"/><path d="M344.32,405.56h0a23.14,23.14,0,0,1-1.2,3.67l-.65,1.81h3.92l-.74-1.74A23,23,0,0,1,344.32,405.56Z" transform="translate(-308.88 -330.62)" style="fill:#d50032"/><path d="M407.35,350.84a1.88,1.88,0,0,0,2.6-.54l.09-.15a1.62,1.62,0,0,0-.58-2.22l-.26-.12-.29-.11,2.08-1-1-.58s-.57.26-.73.35c-.74.39-2.34,1-2.83,1.92a1.76,1.76,0,0,0,.75,2.37Zm0-1.9c.26-.52.81-1,1.36-.69h0c.55.28.56.89.28,1.43a1,1,0,0,1-1.24.68l-.09,0h0a1,1,0,0,1-.32-1.38Z" transform="translate(-308.88 -330.62)" style="fill:#d50032"/><path d="M417.24,367.49c-1.19,1.48-3.5,1.15-3.87,1.07C413.67,368.83,416.25,369.62,417.24,367.49Z" transform="translate(-308.88 -330.62)" style="fill:#d50032"/><path d="M350.79,367.49c1,2.11,3.56,1.34,3.86,1.07C354.28,368.62,352,369,350.79,367.49Z" transform="translate(-308.88 -330.62)" style="fill:#d50032"/><path d="M394.36,409.7c0,3.94,1.88,6,4.18,6s4.19-2.07,4.19-6-1.88-6-4.19-6S394.36,405.76,394.36,409.7Z" transform="translate(-308.88 -330.62)" style="fill:#d50032"/><path d="M331.7,377.23a9.57,9.57,0,0,1-.9,5C331.82,380.86,332.31,378.48,331.7,377.23Z" transform="translate(-308.88 -330.62)" style="fill:#d50032"/><path d="M440.22,423c1,.48,2,2.36,1.51,5.21C442.48,426.62,442.09,423.8,440.22,423Z" transform="translate(-308.88 -330.62)" style="fill:#d50032"/><path d="M323.16,422.26c.2-1.08,2.37-4.64-.29-6.13C324.67,418,323.07,421.18,323.16,422.26Z" transform="translate(-308.88 -330.62)" style="fill:#d50032"/><path d="M315.12,421.44c.05-5.82,1.84-9.82,3.93-11.95C315.78,411.46,314.38,416.82,315.12,421.44Z" transform="translate(-308.88 -330.62)" style="fill:#d50032"/><path d="M327.81,423c-1.91.79-2.27,3.61-1.52,5.21C325.83,425.37,326.9,423.49,327.81,423Z" transform="translate(-308.88 -330.62)" style="fill:#d50032"/><path d="M322.41,408.62a7.6,7.6,0,0,0-5.35,5.64A10.94,10.94,0,0,1,322.41,408.62Z" transform="translate(-308.88 -330.62)" style="fill:#d50032"/><path d="M323.41,399c-.39,4-3.34,7.82-4.62,9.13C320,407.43,323.71,404,323.41,399Z" transform="translate(-308.88 -330.62)" style="fill:#d50032"/></g></g></svg>